<svg width="30" height="31" viewBox="0 0 30 31" fill="none" xmlns="http://www.w3.org/2000/svg">
<path d="M3.75 12.5C3.75 11.5572 3.75 11.0858 4.04289 10.7929C4.33579 10.5 4.80719 10.5 5.75 10.5H24.25C25.1928 10.5 25.6642 10.5 25.9571 10.7929C26.25 11.0858 26.25 11.5572 26.25 12.5V14.875C26.25 15.6969 26.25 16.1078 26.023 16.3844C25.9815 16.435 25.935 16.4815 25.8844 16.523C25.6078 16.75 25.1969 16.75 24.375 16.75V16.75C23.5531 16.75 23.1422 16.75 22.8656 16.977C22.815 17.0185 22.7685 17.065 22.727 17.1156C22.5 17.3922 22.5 17.8031 22.5 18.625V23.5C22.5 24.4428 22.5 24.9142 22.2071 25.2071C21.9142 25.5 21.4428 25.5 20.5 25.5H9.5C8.55719 25.5 8.08579 25.5 7.79289 25.2071C7.5 24.9142 7.5 24.4428 7.5 23.5V18.625C7.5 17.8031 7.5 17.3922 7.27301 17.1156C7.23146 17.065 7.18503 17.0185 7.13439 16.977C6.85781 16.75 6.44687 16.75 5.625 16.75V16.75C4.80313 16.75 4.39219 16.75 4.11561 16.523C4.06497 16.4815 4.01854 16.435 3.97699 16.3844C3.75 16.1078 3.75 15.6969 3.75 14.875V12.5Z" stroke="#E97717" stroke-width="3"/>
<path d="M6.25 16.75H23.75" stroke="#E97717" stroke-width="3" stroke-linecap="round"/>
<path d="M15 9.25L15 25.5" stroke="#E97717" stroke-width="3" stroke-linecap="round"/>
<path d="M15 9.25L13.7112 7.96118C12.5037 6.75365 11.0316 5.84386 9.41151 5.30384L8.88245 5.12748C7.58739 4.6958 6.25 5.65974 6.25 7.02485V7.80848C6.25 8.66934 6.80086 9.43362 7.61754 9.70585L10 10.5" stroke="#E97717" stroke-width="3" stroke-linecap="round"/>
<path d="M15 9.25L16.2888 7.96118C17.4963 6.75365 18.9684 5.84386 20.5885 5.30384L21.1175 5.12748C22.4126 4.6958 23.75 5.65974 23.75 7.02485V7.80848C23.75 8.66934 23.1991 9.43362 22.3825 9.70585L20 10.5" stroke="#E97717" stroke-width="3" stroke-linecap="round"/>
</svg>
