<svg width="30" height="31" viewBox="0 0 30 31" fill="none" xmlns="http://www.w3.org/2000/svg">
<circle cx="12.5" cy="10.5" r="6.25" fill="#E97717"/>
<path d="M23.75 13L23.75 20.5" stroke="#E97717" stroke-width="3" stroke-linecap="round"/>
<path d="M27.5 16.75L20 16.75" stroke="#E97717" stroke-width="3" stroke-linecap="round"/>
<path d="M21.4388 25.9757C22.0099 25.8463 22.3523 25.2527 22.1 24.7244C21.4107 23.2814 20.2752 22.0133 18.8024 21.0582C16.9943 19.8856 14.779 19.25 12.5 19.25C10.221 19.25 8.00569 19.8856 6.19764 21.0582C4.72482 22.0133 3.58929 23.2813 2.90002 24.7244C2.64766 25.2527 2.99015 25.8463 3.56119 25.9757L3.66506 25.9992C9.48138 27.3164 15.5186 27.3164 21.3349 25.9992L21.4388 25.9757Z" fill="#E97717"/>
</svg>
