<svg width="60" height="60" viewBox="0 0 60 60" fill="none" xmlns="http://www.w3.org/2000/svg">
<path d="M26.7806 59.1064C21.5928 58.5225 16.3113 56.3801 12.0732 53.143C10.8314 52.1947 8.32277 49.7347 7.27628 48.4395C5.9074 46.7449 4.73257 44.8893 3.70993 42.8054C-1.18213 32.8366 0.0285857 21.0136 6.85716 12.0736C7.80531 10.8323 10.2652 8.32359 11.561 7.27636C20.3781 0.150658 32.5186 -1.26034 42.7011 3.65718C48.6645 6.53734 53.3255 11.1837 56.2816 17.1956C61.1709 27.1409 59.9607 39.002 53.1426 47.9273C52.1943 49.1683 49.7358 51.6781 48.4392 52.7244C44.0826 56.2454 38.646 58.5005 33.0425 59.1137C31.4138 59.2923 28.3889 59.2879 26.7806 59.1064ZM31.4635 51.8522C32.6899 51.3532 33.5035 50.0947 33.5094 48.6912C33.5123 47.6844 33.2284 46.9337 32.5903 46.2678C31.1723 44.7883 29.0035 44.7444 27.5811 46.1669C25.9684 47.7795 26.2713 50.4795 28.1884 51.6049C29.302 52.2561 30.2869 52.3308 31.4635 51.8522ZM30.925 40.1785C31.6581 39.9166 32.0064 39.5873 32.4294 38.7517C32.7323 38.1546 33.0045 36.4073 34.4723 25.6541C35.6401 17.0946 36.1421 13.0007 36.0908 12.4589C35.9899 11.3796 35.4147 10.2813 34.4504 9.32412C31.8996 6.79373 28.1401 6.80719 25.604 9.35603C24.5723 10.3912 24.1098 11.3439 24.0352 12.5858C23.9957 13.2489 24.4464 16.9951 25.525 24.9517C26.3752 31.2297 27.1406 36.7878 27.2269 37.3029C27.4801 38.8307 28.0537 39.6942 29.1235 40.1581C29.7542 40.4317 30.202 40.4361 30.925 40.1785Z" fill="#004488"/>
</svg>
