<svg width="24" height="24" viewBox="0 0 24 24" fill="none" xmlns="http://www.w3.org/2000/svg">
<path fill-rule="evenodd" clip-rule="evenodd" d="M21 12C21 16.9706 16.9706 21 12 21C7.02944 21 3 16.9706 3 12C3 7.02944 7.02944 3 12 3C16.9706 3 21 7.02944 21 12ZM7.52282 12.1255L10.9677 12.1833L10.9342 14.183L9.30042 14.1556C9.56857 14.4915 9.89805 14.7756 10.2729 14.992C10.7981 15.2952 11.3938 15.4549 12.0002 15.4549C12.6066 15.4549 13.2023 15.2952 13.7274 14.992C14.2526 14.6888 14.6887 14.2527 14.9919 13.7276C15.268 13.2493 15.8796 13.0854 16.3579 13.3616C16.8362 13.6377 17.0001 14.2493 16.7239 14.7276C16.2452 15.5568 15.5566 16.2454 14.7274 16.7241C13.8982 17.2028 12.9576 17.4549 12.0002 17.4549C11.0427 17.4549 10.1021 17.2028 9.2729 16.7241C8.74757 16.4208 8.27869 16.0333 7.88385 15.5791L7.54028 16.8614L5.60843 16.3437L6.54013 12.8666L6.7422 12.1124L7.52282 12.1255ZM16.477 11.8744L13.0321 11.8167L13.0656 9.81693L14.6994 9.84432C14.4312 9.50842 14.1018 9.22429 13.7269 9.00787C13.2018 8.70467 12.6061 8.54505 11.9997 8.54505C11.3933 8.54505 10.7975 8.70467 10.2724 9.00787C9.74722 9.31107 9.31113 9.74716 9.00793 10.2723C8.73178 10.7506 8.12019 10.9145 7.6419 10.6383C7.16361 10.3622 6.99973 9.75061 7.27588 9.27232C7.75461 8.44312 8.44318 7.75455 9.27238 7.27582C10.1016 6.79708 11.0422 6.54505 11.9997 6.54505C12.9571 6.54505 13.8977 6.79708 14.7269 7.27582C15.2522 7.57911 15.7211 7.96663 16.116 8.42077L16.4595 7.13856L18.3914 7.6562L17.4597 11.1334L17.2576 11.8875L16.477 11.8744Z" fill="#6CC0E0"/>
</svg>
