<svg width="24" height="24" viewBox="0 0 24 24" fill="none" xmlns="http://www.w3.org/2000/svg">
<path fill-rule="evenodd" clip-rule="evenodd" d="M12 21C16.9706 21 21 16.9706 21 12C21 7.02944 16.9706 3 12 3C7.02944 3 3 7.02944 3 12C3 16.9706 7.02944 21 12 21ZM6.75 13.75C7.7165 13.75 8.5 12.9665 8.5 12C8.5 11.0335 7.7165 10.25 6.75 10.25C5.7835 10.25 5 11.0335 5 12C5 12.9665 5.7835 13.75 6.75 13.75ZM13.75 12C13.75 12.9665 12.9665 13.75 12 13.75C11.0335 13.75 10.25 12.9665 10.25 12C10.25 11.0335 11.0335 10.25 12 10.25C12.9665 10.25 13.75 11.0335 13.75 12ZM17.25 13.75C18.2165 13.75 19 12.9665 19 12C19 11.0335 18.2165 10.25 17.25 10.25C16.2835 10.25 15.5 11.0335 15.5 12C15.5 12.9665 16.2835 13.75 17.25 13.75Z" fill="#C0C2C6"/>
</svg>
